<svg id="Layer_1" data-name="Layer 1" xmlns="http://www.w3.org/2000/svg" viewBox="0 0 500 500" width="500" height="500" class="illustration"><defs><style>.cls-1{fill:#e2e2e2;}.cls-2{fill:#24285b;}.cls-3{fill:#13183f;}.cls-4{fill:#c3c7c9;}.cls-5{fill:#fff;}.cls-6{fill:#db2868;}.cls-7{fill:#ffd44d;}.cls-8{fill:#f0457d;}.cls-9{fill:#0099f5;}</style></defs><title>Creative Tools</title><rect class="cls-1" x="54.98" y="87.47" width="391.18" height="284.49" rx="17.34" transform="translate(501.13 459.42) rotate(-180)"></rect><path class="cls-2" d="M55,84.23H446.16a0,0,0,0,1,0,0V294.81a17.34,17.34,0,0,1-17.34,17.34H72.32A17.34,17.34,0,0,1,55,294.81V84.23a0,0,0,0,1,0,0Z" transform="translate(501.13 396.38) rotate(-180)"></path><circle class="cls-2" cx="250.15" cy="342.49" r="7.97"></circle><path class="cls-3" d="M245.39,348.88A8,8,0,0,1,256,338.6a8.11,8.11,0,0,1,1.54.91,8,8,0,1,0-12.14,9.37Z"></path><polygon class="cls-1" points="200.46 371.96 299.87 371.96 307.95 426.92 192.38 426.92 200.46 371.96"></polygon><polygon class="cls-4" points="302.76 391.64 197.56 391.64 200.46 371.96 299.87 371.96 302.76 391.64"></polygon><rect class="cls-4" x="183.49" y="425.3" width="133.36" height="6.47" rx="2.29" transform="translate(500.33 857.07) rotate(-180)"></rect><rect class="cls-5" x="71.14" y="100.4" width="359.66" height="196.4" transform="translate(501.94 397.19) rotate(-180)"></rect><path class="cls-6" d="M132.93,68H368.57a11.25,11.25,0,0,1,11.25,11.25V296.79a0,0,0,0,1,0,0H121.68a0,0,0,0,1,0,0V79.22A11.25,11.25,0,0,1,132.93,68Z"></path><rect class="cls-7" x="121.68" y="92" width="258.14" height="204.79"></rect><circle class="cls-5" cx="137.15" cy="80.29" r="4.38"></circle><polygon class="cls-6" points="209.8 253.85 151.68 229.02 151.68 170.9 209.8 195.72 209.8 253.85"></polygon><polygon class="cls-5" points="267.93 170.9 209.8 195.72 209.8 253.85 267.93 229.02 267.93 170.9"></polygon><polygon class="cls-8" points="151.68 170.9 209.8 144.12 267.93 170.9 209.8 195.72 151.68 170.9"></polygon><rect class="cls-9" x="286.92" y="92" width="92.9" height="204.79"></rect><path class="cls-2" d="M361.64,142.69H305.1a2,2,0,0,1,0-4h56.54a2,2,0,0,1,0,4Z"></path><circle class="cls-5" cx="317.04" cy="140.69" r="5.29"></circle><path class="cls-2" d="M361.64,176.7H305.1a2,2,0,0,1,0-4h56.54a2,2,0,0,1,0,4Z"></path><circle class="cls-5" cx="333.37" cy="174.7" r="5.29"></circle></svg>