<?xml version="1.0" encoding="utf-8"?>
<!-- Generator: Adobe Illustrator 24.0.1, SVG Export Plug-In . SVG Version: 6.00 Build 0)  -->
<svg version="1.1" id="capa1" xmlns="http://www.w3.org/2000/svg" xmlns:xlink="http://www.w3.org/1999/xlink" x="0px" y="0px"
	 viewBox="0 0 1915.67 668.39" style="enable-background:new 0 0 1915.67 668.39;" xml:space="preserve">
<style type="text/css">
	.st0{fill:#1E1E1E;}
	.st1{font-family:'ArialRoundedMTBold';}
	.st2{font-size:320.6764px;}
</style>
<text transform="matrix(0.9402 0 0 1 636.4525 294.045)" class="st0 st1 st2">PROPEL</text>
<text transform="matrix(1 0 0 1 636.4525 609.1661)" class="st0 st1 st2">DESIGN</text>
<path class="st0" d="M593.91,571.03c0,0,0-433.58,0-471.66c0-38.07-37.93-37.93-37.93-37.93s-434.19,0-471.66,0
	c-37.47,0-37.93,37.93-37.93,37.93s0,435.73,0,471.66s37.93,37.93,37.93,37.93c6.17,0,12.33,0,18.5,0c9.73,0,118.62-0.95,118.68,0
	c-0.18-3.49,1.25-6.83,2.67-10.02c3.62-8.13,7.4-16.19,11.34-24.17c19.81-40.15,43.57-78.25,65.62-117.11
	c21.96-38.67,46.13-75.39,60.74-117.78c3.54-10.29,6.55-21.47,3.49-31.91c-9.58-32.62-50.87-7.16-69.22,0.6
	c-1.47,0.62-3.54,1.06-4.34-0.32c-0.42-0.72-0.24-1.62-0.05-2.43c3.44-14.74,8.75-30.29,5.39-45.55c-1.29-5.84-4.41-11.5-9.49-14.66
	c-5.65-3.52-12.94-3.48-19.28-1.45c-16.77,5.36-30,19.53-43.72,29.85c-1.85,1.39-3.76,2.81-6.01,3.35
	c-2.25,0.54-4.93-0.05-6.19-1.99c-0.87-1.34-0.91-3.05-0.84-4.65c3.74-80.3,105.72-126.5,175.14-108.08
	c39.83,10.57,74.46,41.73,85.7,81.37c9.87,34.83,1.79,72.29-10.98,106.16c-20.54,54.47-45.64,106.43-60.18,163.11
	c-3.9,15.2-7.05,30.81-6.16,46.48c0.52,9.17,8.55,47.86,22.23,47.97c2.31,0.02,138.62,1.21,138.62,1.21
	C595.46,604.29,593.91,571.03,593.91,571.03z M231.79,333.17c0.75,0.56,1.49,1.12,2.24,1.69c1.38,1.04,2.83,2.21,3.28,3.88
	c0.78,2.87-1.7,5.51-3.96,7.46c-11.81,10.21-23.92,20.15-35.38,30.73c-11.38,10.5-23.2,20.82-37.01,28.04
	c-4.78,2.5-10.04,4.65-15.41,4.09c-1.82-0.19-3.82-0.85-4.63-2.5c-0.94-1.92,0.14-4.17,1.2-6.02
	c15.84-27.68,30.36-57.04,48.04-83.57c1.06-1.84,2.24-3.79,4.19-4.63c2.59-1.12,5.55,0.11,8.05,1.42
	C212.75,319.17,222.44,326.14,231.79,333.17z"/>
</svg>
