<svg xmlns="http://www.w3.org/2000/svg" viewBox="0 0 100 100" width="500" height="500" class="illustration"><defs><style>.cls-1{fill:#f2d451;}.cls-2{fill:#f1983c;}.cls-3{fill:none;stroke:#1f1d1d;}.cls-3,.cls-4{stroke-miterlimit:10;}.cls-3,.cls-4,.cls-5{stroke-width:1.5px;}.cls-4{fill:#f1f2f2;}.cls-4,.cls-5{stroke:#231f20;}.cls-5{fill:#f0457d;stroke-linejoin:bevel;}</style></defs><g id="Layer_2" data-name="Layer 2"><g id="Layer_1-2" data-name="Layer 1"><polygon class="cls-1" points="82.39 85.33 69.08 85.33 52.72 35.14 50.86 40.86 36.36 85.33 23.06 85.33 46.07 14.73 46.02 14.56 46.14 14.53 47.4 10.64 58.04 10.64 59.31 14.53 59.43 14.56 59.37 14.73 82.39 85.33"></polygon><polygon class="cls-2" points="78.67 85.33 65.35 85.33 50.86 40.86 48.99 35.14 32.63 85.33 19.33 85.33 42.34 14.73 42.29 14.56 42.41 14.53 43.67 10.64 54.31 10.64 55.58 14.53 55.7 14.56 55.64 14.73 78.67 85.33"></polygon></g><g id="Layer_2-2" data-name="Layer 2"><polyline class="cls-3" points="41.42 69.81 36.36 85.33 23.06 85.33"></polyline><polyline class="cls-3" points="77.46 70.2 82.39 85.33 69.08 85.33"></polyline><polyline class="cls-3" points="47.4 10.64 58.04 10.64 59.37 14.73 60.82 19.17"></polyline><polyline class="cls-3" points="37.69 69.81 32.63 85.33 19.33 85.33 23.75 71.75"></polyline><polyline class="cls-3" points="73.67 70.02 78.67 85.33 65.35 85.33 60.34 69.95"></polyline><polyline class="cls-3" points="41.86 16.18 42.34 14.73 43.67 10.64 54.31 10.64 55.64 14.73 57.09 19.17"></polyline></g><rect class="cls-4" x="9.95" y="19.64" width="81.82" height="50.16"></rect><path class="cls-5" d="M25.68,53.8c-3,2.51-6.94-1.77-4.39-4.78,6-7.11,21.27-21.16,28.28-19.24,9.54,2.62,0,7.86-5.73,17-4.89,7.83,5.41,4.58,13.68-2.62s14-17.34,20.68-15S73.11,59.57,66.43,61.2s-1-7.2-6.05-6.22-11.45,10.15-22,8.19-3.18-14.4-7-14.08C29.39,49.27,28.07,51.79,25.68,53.8Z"></path><path class="cls-5" d="M34.59,27.21a1.91,1.91,0,0,1,1.07,3.55c-3.55,2.06-8.56,4.63-9.95,3.61C24,33.12,29.3,27.72,34.59,27.21Z"></path></g></svg>