<svg id="Layer_1" data-name="Layer 1" xmlns="http://www.w3.org/2000/svg" viewBox="0 0 500 500" width="500" height="500" class="illustration"><defs><style>.cls-1{fill:#f2f2f2;}.cls-2{fill:#0099f5;}.cls-3{opacity:0.09;isolation:isolate;}.cls-4{fill:#f9bb0d;}.cls-5{fill:#fff;}.cls-6{fill:#101642;}.cls-7{fill:#24285b;}</style></defs><title>Creative Tools</title><circle class="cls-1" cx="308.98" cy="201.47" r="147.78"></circle><rect class="cls-2" x="101.6" y="266.45" width="35.42" height="228.48" rx="3" transform="translate(304.14 27.14) rotate(45)"></rect><rect class="cls-3" x="157.24" y="289.5" width="35.42" height="71.09" transform="translate(281.09 -28.51) rotate(45)"></rect><path class="cls-2" d="M423.44,76.56a168.36,168.36,0,1,0,0,238.09A168.35,168.35,0,0,0,423.44,76.56ZM395,287.4A128.95,128.95,0,1,1,395,105,128.94,128.94,0,0,1,395,287.4Z"></path><rect class="cls-4" x="372.67" y="144.55" width="6.68" height="20.72" rx="1.94" transform="translate(530.92 -221.1) rotate(90)"></rect><rect class="cls-4" x="365.91" y="122.05" width="6.68" height="20.72" rx="1.94" transform="translate(272.79 -247.81) rotate(56.04)"></rect><rect class="cls-4" x="238.6" y="144.61" width="6.68" height="20.72" rx="1.94" transform="translate(396.91 -86.97) rotate(90)"></rect><rect class="cls-4" x="245.36" y="122.11" width="6.68" height="20.72" rx="1.94" transform="translate(497.51 0.2) rotate(123.96)"></rect><path class="cls-4" d="M303.7,133.76a49.77,49.77,0,0,0-22.09,91.57,24.94,24.94,0,0,1,10.67,15.35l3.4,14.25,14.1-.3,14.11-.29,2.82-14.52A25.32,25.32,0,0,1,337,224a49.77,49.77,0,0,0-33.28-90.22Z"></path><path class="cls-5" d="M305.31,260.47h-.16a1.42,1.42,0,0,1-1.29-1.56c1.85-19.55.55-36.79-2.09-47l-1-.05c-6.05-.18-8.29-2.72-9.09-4.22a5.22,5.22,0,0,1,.19-5.29,5.73,5.73,0,0,1,5.22-2.56,4.66,4.66,0,0,1,3.29,1.84,21.53,21.53,0,0,1,3.57,7.5,56.91,56.91,0,0,0,9.57-.49,20,20,0,0,1,5.36-8,5.31,5.31,0,0,1,4.74-1.27,3.93,3.93,0,0,1,3.15,4.49c-.46,2.87-3.76,5.89-11.14,7.31a33,33,0,0,0-2,11.62c-.37,12.71.74,35.74.75,36a1.43,1.43,0,0,1-2.86.14c0-.23-1.12-23.37-.75-36.12a35.82,35.82,0,0,1,1.65-11.14,60.32,60.32,0,0,1-7.69.34c2.64,10.71,3.86,27.72,2,47.14A1.44,1.44,0,0,1,305.31,260.47Zm-8.68-57.81a2.82,2.82,0,0,0-2.4,1.24,2.36,2.36,0,0,0-.07,2.42c.86,1.61,3.3,2.6,6.69,2.7h.06a16.73,16.73,0,0,0-2.74-5.49,2.12,2.12,0,0,0-1.26-.86Zm25.79-.53a3.3,3.3,0,0,0-1.82.81,15,15,0,0,0-3.64,5c5-1.34,6.76-3.45,6.93-4.5.14-.83-.6-1.15-1-1.27A2,2,0,0,0,322.42,202.13Z"></path><polygon class="cls-6" points="317.41 278.03 303.15 278.33 299.88 271.45 320.39 271.02 317.41 278.03"></polygon><path class="cls-7" d="M325.87,253.29l-32.22.68a3.37,3.37,0,0,0-3.3,3.45l.08,3.86a3.37,3.37,0,0,0,3.44,3.31h.22a5.31,5.31,0,0,0,4,8.95l24.23-.5a5.31,5.31,0,0,0,3.59-9.11h.22a3.37,3.37,0,0,0,3.3-3.44l-.08-3.87A3.38,3.38,0,0,0,325.87,253.29Z"></path><path class="cls-6" d="M325.87,253.29l-15.77.34.55,19.64,11.64-.24a5.31,5.31,0,0,0,3.59-9.11h.22a3.37,3.37,0,0,0,3.3-3.44l-.08-3.87A3.38,3.38,0,0,0,325.87,253.29Z"></path></svg>