<?xml version="1.0" encoding="utf-8"?>
<!-- Generator: Adobe Illustrator 24.0.1, SVG Export Plug-In . SVG Version: 6.00 Build 0)  -->
<svg version="1.1" id="capa1" xmlns="http://www.w3.org/2000/svg" xmlns:xlink="http://www.w3.org/1999/xlink" x="0px" y="0px"
	 viewBox="0 0 1051.7 1051.7" style="enable-background:new 0 0 1051.7 1051.7;" xml:space="preserve">
<style type="text/css">
	.st0{fill:#1E1E1E;}
</style>
<path class="st0" d="M1051.7,978.8c0,0,0-832.8,0-906c0-73.1-72.9-72.9-72.9-72.9s-834,0-906,0S0,72.9,0,72.9s0,837,0,906
	s72.9,72.9,72.9,72.9c11.9,0,23.7,0,35.5,0c18.7,0,227.9-1.8,228,0c-0.3-6.7,2.4-13.1,5.1-19.2c7-15.6,14.2-31.1,21.8-46.4
	c38.1-77.1,83.7-150.3,126-224.9c42.2-74.3,88.6-144.8,116.7-226.2c6.8-19.8,12.6-41.2,6.7-61.3c-18.4-62.7-97.7-13.8-133,1.2
	c-2.8,1.2-6.8,2-8.3-0.6c-0.8-1.4-0.5-3.1-0.1-4.7c6.6-28.3,16.8-58.2,10.4-87.5c-2.5-11.2-8.5-22.1-18.2-28.2
	c-10.9-6.8-24.9-6.7-37-2.8c-32.2,10.3-57.6,37.5-84,57.3c-3.6,2.7-7.2,5.4-11.5,6.4c-4.3,1-9.5-0.1-11.9-3.8
	c-1.7-2.6-1.7-5.9-1.6-8.9c7.2-154.2,203.1-243,336.4-207.6c76.5,20.3,143,80.2,164.6,156.3c19,66.9,3.4,138.9-21.1,203.9
	C757.8,659.2,709.6,759,681.7,867.9c-7.5,29.2-13.5,59.2-11.8,89.3c1,17.6,16.4,91.9,42.7,92.1c4.4,0,266.3,2.3,266.3,2.3
	C1054.7,1042.7,1051.7,978.8,1051.7,978.8z M356.1,522c1.4,1.1,2.9,2.2,4.3,3.2c2.7,2,5.4,4.2,6.3,7.5c1.5,5.5-3.3,10.6-7.6,14.3
	c-22.7,19.6-45.9,38.7-68,59c-21.9,20.2-44.6,40-71.1,53.9c-9.2,4.8-19.3,8.9-29.6,7.9c-3.5-0.4-7.3-1.6-8.9-4.8
	c-1.8-3.7,0.3-8,2.3-11.6c30.4-53.2,58.3-109.6,92.3-160.5c2-3.5,4.3-7.3,8-8.9c5-2.2,10.7,0.2,15.5,2.7
	C319.6,495.1,338.2,508.4,356.1,522z"/>
</svg>
