<?xml version="1.0" encoding="utf-8"?>
<!-- Generator: Adobe Illustrator 24.0.1, SVG Export Plug-In . SVG Version: 6.00 Build 0)  -->
<svg version="1.1" id="Capa_1" xmlns="http://www.w3.org/2000/svg" xmlns:xlink="http://www.w3.org/1999/xlink" x="0px" y="0px"
	 viewBox="0 0 2500 2448" style="enable-background:new 0 0 2500 2448;" xml:space="preserve">
<style type="text/css">
	.st0{fill:#CECECE;}
	.st1{fill:#7C7C7C;}
</style>
<path class="st0" d="M0,0h2500v2448H0V0z"/>
<path class="st1" d="M912,1246.2h221.6l-110.8-429.7L912,1246.2z M189.1,191.7v2065.8H2314V191.7H189.1z M1255.2,1717.4l-81.1-279.3
	h-300L793,1717.4H587.7l289.2-987.3V622h275.7l329.7,1095.4H1255.2z M1801.1,1717.4h-221.6V884.1h221.6V1717.4z M1691.6,784.1
	c-63.4,0-114.9-50.8-114.9-113.5s51.4-113.5,114.9-113.5c63.4,0,114.9,50.8,114.9,113.5S1755.1,784.1,1691.6,784.1z"/>
</svg>
