<?xml version="1.0" encoding="utf-8"?>
<!-- Generator: Adobe Illustrator 24.0.1, SVG Export Plug-In . SVG Version: 6.00 Build 0)  -->
<svg version="1.1" id="Capa_1" xmlns="http://www.w3.org/2000/svg" xmlns:xlink="http://www.w3.org/1999/xlink" x="0px" y="0px"
	 viewBox="0 0 2500 2500" style="enable-background:new 0 0 2500 2500;" xml:space="preserve">
<style type="text/css">
	.st0{fill:#DDDDDD;}
	.st1{fill:#CECECE;}
	.st2{fill:#BCBCBC;}
	.st3{fill:#F4F4F4;}
	.st4{fill:#A3A3A3;}
</style>
<path class="st0" d="M1443.8,139.2c-79.6-25.1-164.8-38.8-252.9-38.8c-257.1,0-487.3,116-641.2,298.8l395.4,332.4L1443.8,139.2z"/>
<path class="st1" d="M549.7,399.2c-126.8,150.6-196.2,341.1-196.1,538c0,157.2,31.3,285.1,82.9,399.2l508.6-604.8L549.7,399.2z"/>
<path class="st2" d="M1190.9,617.6c176.9,0.2,320.2,143.7,320,320.6c-0.1,75.6-26.9,148.7-75.7,206.5l498.2-592.4
	c-102.3-197-278.6-345.4-490.1-412.5L945.6,732.2C1006.3,659.5,1096.2,617.5,1190.9,617.6"/>
<path class="st3" d="M1190.9,1257.8c-176.6,0-320.1-143.5-320.1-320.1c-0.2-75.2,26.3-148.1,74.8-205.5l-509.1,604.8
	c87.1,192.7,231.6,347.6,380.3,542.7l618.5-735C1374.4,1216.5,1285,1257.9,1190.9,1257.8"/>
<path class="st4" d="M1422.9,2079.9c279.4-436.6,604.8-635.1,604.8-1142.7c0-139.2-34.1-270.4-94.2-386L817.2,1879.6
	c47.4,62,95.2,127.9,141.6,200.8c169.5,262.4,122.7,419.6,232,419.6C1300.3,2500,1253.4,2342.3,1422.9,2079.9"/>
</svg>
