<?xml version="1.0" encoding="utf-8"?>
<!-- Generator: Adobe Illustrator 24.0.1, SVG Export Plug-In . SVG Version: 6.00 Build 0)  -->
<svg version="1.1" id="Capa_1" xmlns="http://www.w3.org/2000/svg" xmlns:xlink="http://www.w3.org/1999/xlink" x="0px" y="0px"
	 viewBox="0 0 800 800" style="enable-background:new 0 0 800 800;" xml:space="preserve">
<style type="text/css">
	.st0{fill:#494C4E;}
</style>
<path class="st0" d="M222.2,144.9V156l57,57.8l6.7,6.8l145.6,147.6c7.5,7.8,11.9,18.1,12.4,28.9c0,1,0.6,1.8,0.6,2.8
	c0,5.1-1.1,10.1-3,14.8c-2,5.7-5.1,10.8-9.2,15.2c-0.2,0.4-0.4,0.8-0.8,1.2c-0.2,0.2-0.5,0.4-0.8,0.5c-4.3,4.1-9.5,7.3-15.1,9.3
	c-4.9,2.2-10.3,3.3-15.6,3.4c-0.9,0-1.6-0.4-2.5-0.5c-11-0.4-21.4-4.8-29.3-12.5l-88.9-87.6l-65.5-64.7l-57.8-57h-44.4
	c-6-0.5-11.6-3.1-15.8-7.5l-31.7-31.4L6.5,126.2c-8.6-8.4-8.7-22.2-0.3-30.8c4.2-4.3,10-6.7,16-6.5h66.7V22.2
	c-0.2-12,9.3-22,21.3-22.2c6-0.1,11.8,2.2,16,6.5l88.5,89.3c4.4,4.1,7,9.8,7.5,15.8V144.9z"/>
<path class="st0" d="M22.9,267.6l10.3,10.2c18.6,18.4,43,29.8,69,32.4c-49.8,164.6,43.3,338.3,207.9,388.1
	c164.6,49.8,338.3-43.3,388.1-207.9C748,325.7,654.9,152,490.3,102.2c-58.7-17.7-121.4-17.8-180.1,0c-2.5-26-14-50.4-32.4-69
	l-10.3-10.4c208.9-73.8,438.1,35.8,511.8,244.7s-35.8,438.1-244.7,511.8C325.8,853.2,96.7,743.6,22.9,534.7
	C-7.6,448.3-7.6,354,22.9,267.6z"/>
<path class="st0" d="M494.8,305.8L371.3,180.7c9.5-1.6,19.1-2.6,28.7-2.9c122.7,0,222.2,99.5,222.2,222.2S522.7,622.2,400,622.2
	S177.8,522.7,177.8,400c0.3-9.6,1.3-19.2,2.9-28.7l125,123.3h0.7c52.8,51.2,137,49.9,188.2-2.9c49-50.5,50.2-130.3,2.9-182.3
	C496.6,308.2,495.7,307,494.8,305.8L494.8,305.8z"/>
</svg>
