<svg xmlns="http://www.w3.org/2000/svg" viewBox="0 0 100 100" width="500" height="500" class="illustration"><g id="Layer_1" data-name="Layer 1"><path d="M49.44,23.93A18.76,18.76,0,0,0,39.36,58.52v5.14H60v-5.4A18.78,18.78,0,0,0,49.44,23.93Z" fill="#ffd44d"></path><path d="M39.36,63.66H59.95a0,0,0,0,1,0,0V76.93a4,4,0,0,1-4,4H43.4a4,4,0,0,1-4-4V63.66A0,0,0,0,1,39.36,63.66Z" fill="#f0457d"></path><path d="M50.41,85.59H49a3.15,3.15,0,0,1-3.15-3.15V81h7.75v1.44h0A3.15,3.15,0,0,1,50.41,85.59Z" fill="#0099f5"></path><path d="M31.08,46.61S40.1,60.46,60,58.26v5.4H39.36V58.52S32.16,54.14,31.08,46.61Z" fill="#ff9515"></path></g><g id="Layer_2" data-name="Layer 2"><path d="M39.36,63.66H59.95a0,0,0,0,1,0,0V76.93a4,4,0,0,1-4,4H43.4a4,4,0,0,1-4-4V63.66A0,0,0,0,1,39.36,63.66Z" fill="none" stroke="#231f20" stroke-linejoin="round" stroke-width="1.5"></path><path d="M50.38,85.55H48.93a3.15,3.15,0,0,1-3.15-3.15V81h7.75V82.4h0A3.15,3.15,0,0,1,50.38,85.55Z" fill="none" stroke="#231f20" stroke-linejoin="round" stroke-width="1.5"></path><path d="M33.59,32.64a18.76,18.76,0,0,0,5.77,25.88v5.14H60v-5.4a18.77,18.77,0,1,0-22.26-30.2" fill="none" stroke="#231f20" stroke-linejoin="round" stroke-width="1.5"></path><line x1="44.48" y1="70.06" x2="59.64" y2="70.06" fill="none" stroke="#231f20" stroke-linejoin="round" stroke-width="1.5"></line><polyline points="49.44 55.67 49.44 43.2 42.9 37.55" fill="none" stroke="#fff" stroke-linejoin="round" stroke-width="1.5"></polyline><line x1="49.44" y1="43.2" x2="56.94" y2="37.55" fill="none" stroke="#fff" stroke-linejoin="round" stroke-width="1.5"></line><line x1="49.44" y1="11.76" x2="49.44" y2="18.06" fill="none" stroke="#231f20" stroke-linejoin="round" stroke-width="1.5"></line><line x1="80.79" y1="43.11" x2="74.49" y2="43.11" fill="none" stroke="#231f20" stroke-linejoin="round" stroke-width="1.5"></line><line x1="24.39" y1="43.11" x2="18.1" y2="43.11" fill="none" stroke="#231f20" stroke-linejoin="round" stroke-width="1.5"></line><line x1="31.73" y1="25.4" x2="27.28" y2="20.94" fill="none" stroke="#231f20" stroke-linejoin="round" stroke-width="1.5"></line><line x1="67.15" y1="25.4" x2="71.61" y2="20.94" fill="none" stroke="#231f20" stroke-linejoin="round" stroke-width="1.5"></line></g></svg>