<?xml version="1.0" encoding="utf-8"?>
<!-- Generator: Adobe Illustrator 24.0.1, SVG Export Plug-In . SVG Version: 6.00 Build 0)  -->
<svg version="1.1" id="Capa_1" xmlns="http://www.w3.org/2000/svg" xmlns:xlink="http://www.w3.org/1999/xlink" x="0px" y="0px"
	 viewBox="0 0 406 306" style="enable-background:new 0 0 406 306;" xml:space="preserve">
<style type="text/css">
	.st0{fill:#093F68;}
	.st1{fill:#FFBF23;}
	.st2{fill:#FFFFFF;}
	.st3{fill:#DFEAEF;}
	.st4{fill:#FFBC0E;}
	.st5{fill:#70CC40;}
	.st6{fill:#F56132;}
	.st7{fill:#817E77;}
</style>
<g id="_247_landing_page_outline">
	<g id="XMLID_1_">
		<g>
			<path class="st0" d="M283,138.4c0,0.6-0.4,1-1,1v-1v-1C282.5,137.4,283,137.8,283,138.4z"/>
			<path class="st0" d="M283,219.5c0,0.6-0.4,1-1,1h-12.3v-1H282v-80.1c0.6,0,1-0.5,1-1V219.5z"/>
			<rect x="280.9" y="138.4" class="st0" width="1" height="1"/>
			<rect x="280.9" y="137.4" class="st0" width="1" height="1"/>
			<path class="st0" d="M282,129.2h-12.3v-1H282c0.6,0,1,0.5,1,1v9.2c0-0.6-0.4-1-1-1V129.2z"/>
			<polygon class="st0" points="280.9,218.5 280.9,139.4 282,139.4 282,219.5 269.7,219.5 269.7,218.5 			"/>
			<rect x="269.7" y="139.4" class="st1" width="11.2" height="79.1"/>
			<rect x="269.7" y="138.4" class="st0" width="11.2" height="1"/>
			<rect x="269.7" y="137.4" class="st0" width="11.2" height="1"/>
			<rect x="269.7" y="130.2" class="st1" width="11.2" height="7.1"/>
			<polygon class="st0" points="269.7,129.2 282,129.2 282,137.4 280.9,137.4 280.9,130.2 269.7,130.2 			"/>
			<path class="st0" d="M269.7,81.8v38.8c0,0.1,0,0.2,0,0.2v-0.1c0-0.1,0-0.3,0-0.4L269.7,81.8l0-0.2
				C269.7,81.7,269.7,81.8,269.7,81.8z"/>
			<path class="st0" d="M269.7,120.8v-0.4C269.7,120.5,269.7,120.6,269.7,120.8z"/>
			<rect x="268.7" y="219.5" class="st0" width="1" height="1"/>
			<rect x="268.7" y="218.5" class="st0" width="1" height="1"/>
			<rect x="268.7" y="139.4" class="st0" width="1" height="79.1"/>
			<rect x="268.7" y="138.4" class="st0" width="1" height="1"/>
			<rect x="268.7" y="137.4" class="st0" width="1" height="1"/>
			<rect x="268.7" y="130.2" class="st0" width="1" height="7.1"/>
			<rect x="268.7" y="129.2" class="st0" width="1" height="1"/>
			<rect x="268.7" y="128.2" class="st0" width="1" height="1"/>
			<path class="st0" d="M269.7,120.9v7.3h-1v-6.5C269.2,121.7,269.6,121.3,269.7,120.9z"/>
			<path class="st0" d="M269.7,81.8v38.5c0-0.2-0.2-0.4-0.4-0.6l-0.6-0.5V82.9C269.2,82.8,269.7,82.4,269.7,81.8z"/>
			<path class="st0" d="M269.7,120.9c-0.1,0.4-0.5,0.8-1,0.8v-0.1c0.3,0,0.6-0.2,0.8-0.4C269.6,121.1,269.7,120.9,269.7,120.9
				L269.7,120.9z"/>
			<path class="st0" d="M269.7,120.4v0.4c0,0.2-0.1,0.3-0.2,0.4c-0.2,0.2-0.5,0.4-0.8,0.4v-1v-1.3l0.6,0.5
				C269.5,119.9,269.6,120.1,269.7,120.4z"/>
			<path class="st0" d="M269.7,81.8c0,0.6-0.4,1-1,1v-1v-1c0.5,0,0.9,0.3,1,0.8V81.8z"/>
			<polygon class="st0" points="267.7,121.7 267.7,120.6 268.7,120.6 268.7,121.6 268.7,121.7 			"/>
			<rect x="267.7" y="219.5" class="st0" width="1" height="1"/>
			<rect x="267.7" y="218.5" class="st0" width="1" height="1"/>
			<rect x="267.7" y="139.4" class="st0" width="1" height="79.1"/>
			<rect x="267.7" y="138.4" class="st0" width="1" height="1"/>
			<rect x="267.7" y="137.4" class="st0" width="1" height="1"/>
			<rect x="267.7" y="130.2" class="st0" width="1" height="7.1"/>
			<rect x="267.7" y="129.2" class="st0" width="1" height="1"/>
			<rect x="267.7" y="128.2" class="st0" width="1" height="1"/>
			<rect x="267.7" y="121.7" class="st0" width="1" height="6.6"/>
			<rect x="267.7" y="80.8" class="st0" width="1" height="1"/>
			<polygon class="st0" points="267.7,82.9 268.7,82.9 268.7,119.3 267.7,118.5 			"/>
			<polygon class="st0" points="268.7,120.6 267.7,120.6 267.7,119.9 			"/>
			<polygon class="st0" points="267.7,119.9 267.7,118.5 268.7,119.3 268.7,120.6 			"/>
			<rect x="267.7" y="81.8" class="st0" width="1" height="1"/>
			<path class="st2" d="M267.7,220.5v3.5c0,3.4-2.7,6.1-6.1,6.1h-82v-25.7h4.9v15.1c0,0.6,0.5,1,1,1H267.7z"/>
			<rect x="138.3" y="120.6" class="st0" width="129.4" height="1"/>
			<polygon class="st0" points="267.7,119.6 267.7,118.5 267.7,118.5 267.7,119.9 267.4,119.6 			"/>
			<polygon class="st0" points="267.7,82.9 267.7,82.9 267.7,118.5 267.7,118.5 			"/>
			<path class="st1" d="M267.7,82.9v35.7l-35.6-27.2c-0.4-0.3-0.9-0.3-1.3,0l-22.7,18.5l-26.1-22c-0.4-0.3-0.9-0.3-1.2,0l-42.5,30.8
				V82.9H267.7z"/>
			<polygon class="st0" points="267.7,82.9 138.3,82.9 138.3,81.8 267.7,81.8 267.7,82.9 			"/>
			<polygon class="st0" points="267.7,81.8 138.3,81.8 138.3,80.8 267.7,80.8 267.7,80.8 			"/>
			<path class="st0" d="M267.7,77.4c0-1.1-0.2-2.2-0.5-3.1C267.5,75.2,267.7,76.3,267.7,77.4l0,3.5h0V77.4z"/>
			<path class="st0" d="M267,73.8C267,73.8,267,73.8,267,73.8L267,73.8z"/>
			<path class="st0" d="M265,70.9c0.3,0.3,0.6,0.6,0.9,1C265.6,71.5,265.3,71.2,265,70.9z"/>
			<path class="st0" d="M261.6,232.1h-82v-1h82c3.9,0,7.1-3.2,7.1-7.1v-3.5h1v3.5C269.7,228.4,266.1,232.1,261.6,232.1z"/>
			<path class="st0" d="M261.6,231.1h-82v-1h82c3.4,0,6.1-2.7,6.1-6.1v-3.5h1v3.5C268.7,227.9,265.5,231.1,261.6,231.1z"/>
			<path class="st2" d="M258.5,68.2c1.3,0,2.5,0.3,3.6,0.7C261,68.5,259.8,68.2,258.5,68.2h-37H258.5z"/>
			<path class="st3" d="M249.5,135.3c0.6,0,1,0.4,1,1s-0.4,1-1,1h-49.9c-0.6,0-1-0.5-1-1s0.4-1,1-1H249.5z"/>
			<path class="st3" d="M249.5,145.9c0.6,0,1,0.4,1,1s-0.4,1-1,1h-49.9c-0.6,0-1-0.5-1-1s0.4-1,1-1H249.5z"/>
			<path class="st2" d="M203.5,137.4c-0.6,0-1,0.4-1,1c0,0.6,0.5,1,1,1h64.2v79.1h-81.2v-14.1h6.6c0.6,0,1-0.5,1-1c0-0.6-0.4-1-1-1
				h-6.6v-8.6h19.8c0.6,0,1-0.4,1-1s-0.4-1-1-1h-19.8v-8.6h19.8c0.6,0,1-0.5,1-1s-0.4-1-1-1h-19.8v-50.9h81.2v7.1H203.5z
				 M199.6,137.3h49.9c0.6,0,1-0.5,1-1s-0.4-1-1-1h-49.9c-0.6,0-1,0.4-1,1S199.1,137.3,199.6,137.3z M250.5,192.8
				C250.5,192.8,250.5,192.8,250.5,192.8c0-8.4-6.8-15.3-15.3-15.3c-8.4,0-15.3,6.9-15.3,15.3c0,8.4,6.8,15.3,15.3,15.3
				C243.7,208.1,250.5,201.2,250.5,192.8z M250.5,146.9c0-0.6-0.4-1-1-1h-49.9c-0.6,0-1,0.4-1,1s0.4,1,1,1h49.9
				C250.1,147.9,250.5,147.5,250.5,146.9z M234.7,157.5c0-0.6-0.5-1-1-1h-9.1c-0.6,0-1,0.5-1,1s0.5,1,1,1h9.1
				C234.3,158.5,234.7,158,234.7,157.5z M217.7,157.5c0-0.6-0.5-1-1-1h-17c-0.6,0-1,0.5-1,1s0.4,1,1,1h17
				C217.2,158.5,217.7,158,217.7,157.5z"/>
			<path class="st4" d="M248.5,192.8C248.5,192.8,248.5,192.8,248.5,192.8c0,7.3-5.9,13.3-13.3,13.2c-7.3,0-13.3-5.9-13.2-13.3
				c0-7.3,5.9-13.2,13.3-13.2C242.6,179.5,248.5,185.5,248.5,192.8z"/>
			<path class="st3" d="M233.7,156.5c0.6,0,1,0.5,1,1s-0.5,1-1,1h-9.1c-0.6,0-1-0.4-1-1s0.5-1,1-1H233.7z"/>
			<polygon class="st0" points="231.5,93.5 209.8,111.2 209,110.5 231.5,92.2 267.4,119.6 265.7,119.6 			"/>
			<path class="st0" d="M235.2,178.5c7.9,0,14.3,6.4,14.3,14.3s-6.4,14.3-14.3,14.3c-7.9,0-14.3-6.4-14.3-14.3
				S227.4,178.5,235.2,178.5z M248.5,192.8c0-7.3-5.9-13.2-13.2-13.3c-7.3,0-13.3,5.9-13.3,13.2c0,7.3,5.9,13.3,13.2,13.3
				C242.5,206,248.5,200.1,248.5,192.8C248.5,192.8,248.5,192.8,248.5,192.8z"/>
			<path class="st0" d="M249.5,192.8c0-7.9-6.4-14.3-14.3-14.3c-7.9,0-14.3,6.4-14.3,14.3s6.4,14.3,14.3,14.3
				C243.1,207.1,249.5,200.7,249.5,192.8z M250.5,192.8c0,8.4-6.8,15.3-15.3,15.3c-8.5,0-15.3-6.8-15.3-15.3
				c0-8.4,6.8-15.3,15.3-15.3C243.7,177.5,250.5,184.3,250.5,192.8C250.5,192.8,250.5,192.8,250.5,192.8z"/>
			<path class="st3" d="M216.7,156.5c0.6,0,1,0.5,1,1s-0.5,1-1,1h-17c-0.6,0-1-0.4-1-1s0.4-1,1-1H216.7z"/>
			<path class="st5" d="M214.7,116.7c0.4-0.4,0.3-1.1-0.1-1.4l-4.8-4l21.8-17.7l34.2,26.1h-51.8V117
				C214.2,117,214.5,116.9,214.7,116.7z"/>
			<path class="st5" d="M213.9,119.6h-73.5l41-29.7l26.2,22.1c0.1,0,0.1,0.1,0.2,0.1h0l5.6,4.7c0.2,0.2,0.4,0.2,0.6,0.2V119.6z"/>
			<path class="st0" d="M207.4,110.5c0.4-0.4,1-0.5,1.4-0.1l0.1,0.1l-0.8,0.7L207.4,110.5z"/>
			<path class="st0" d="M214.6,115.2c0.4,0.4,0.5,1,0.1,1.4c-0.2,0.2-0.5,0.4-0.8,0.4c-0.2,0-0.5-0.1-0.6-0.2l-5.6-4.7
				c0.4,0.2,0.8,0.2,1.1-0.1l1-0.8L214.6,115.2z"/>
			<path class="st0" d="M209,110.5l0.8,0.7l-1,0.8c-0.3,0.3-0.8,0.3-1.1,0.1h0l-0.1-0.1c-0.4-0.3-0.5-1-0.1-1.4l0,0l0.8,0.7
				L209,110.5z"/>
			<path class="st3" d="M206.3,181.2c0.6,0,1,0.5,1,1s-0.4,1-1,1h-19.8v-2H206.3z"/>
			<path class="st3" d="M206.3,191.8c0.6,0,1,0.5,1,1s-0.4,1-1,1h-19.8v-2H206.3z"/>
			<path class="st2" d="M203.5,139.4c-0.6,0-1-0.5-1-1c0-0.6,0.5-1,1-1h64.2v1v1H203.5z"/>
			<path class="st3" d="M193.2,202.4c0.6,0,1,0.5,1,1c0,0.6-0.4,1-1,1h-6.6v-2H193.2z"/>
			<polygon class="st2" points="267.7,219.5 185.5,219.5 185.5,204.4 186.5,204.4 186.5,218.5 267.7,218.5 			"/>
			<rect x="185.5" y="202.4" class="st3" width="1" height="2"/>
			<rect x="185.5" y="193.8" class="st2" width="1" height="8.6"/>
			<rect x="185.5" y="191.8" class="st3" width="1" height="2"/>
			<rect x="185.5" y="183.2" class="st2" width="1" height="8.6"/>
			<rect x="185.5" y="181.2" class="st3" width="1" height="2"/>
			<path class="st2" d="M186,146.9C186,146.9,186,146.9,186,146.9c0-1.4-0.2-2.8-0.5-4v-13.7h82.2v1h-81.2v50.9h-1v-30.4
				C185.8,149.5,186,148.2,186,146.9z"/>
			<path class="st0" d="M186,146.8C186,146.9,186,146.9,186,146.8c0,1.4-0.2,2.7-0.5,3.9v-7.9C185.8,144.1,186,145.5,186,146.8z"/>
			<rect x="184.5" y="202.4" class="st3" width="1" height="2"/>
			<rect x="184.5" y="193.8" class="st2" width="1" height="8.6"/>
			<rect x="184.5" y="191.8" class="st3" width="1" height="2"/>
			<rect x="184.5" y="183.2" class="st2" width="1" height="8.6"/>
			<rect x="184.5" y="181.2" class="st3" width="1" height="2"/>
			<path class="st2" d="M185.5,150.8v30.4h-1v-27.7C184.9,152.6,185.3,151.7,185.5,150.8z"/>
			<path class="st0" d="M185,146.9c0-1.3-0.2-2.5-0.5-3.7v-3c0.4,0.9,0.7,1.7,1,2.7v7.9c-0.2,0.9-0.6,1.8-1,2.7v-2.9
				C184.8,149.4,185,148.2,185,146.9z"/>
			<path class="st2" d="M184.5,129.2c0-0.6,0.5-1,1-1h82.2v1h-82.2v13.7c-0.2-0.9-0.6-1.8-1-2.7V129.2z"/>
			<path class="st2" d="M185.5,219.5h82.2v1h-82.2c-0.6,0-1-0.5-1-1v-15.1h1V219.5z"/>
			<path class="st0" d="M185,146.9c0,1.3-0.2,2.5-0.5,3.7v-7.4C184.8,144.4,185,145.6,185,146.9z"/>
			<rect x="179.6" y="202.4" class="st3" width="4.9" height="2"/>
			<path class="st3" d="M184.5,191.8v2h-28c-0.6,0-1-0.4-1-1s0.4-1,1-1H184.5z"/>
			<path class="st3" d="M184.5,181.2v2h-28c-0.6,0-1-0.5-1-1s0.4-1,1-1H184.5z"/>
			<path class="st6" d="M184,146.8C184,146.8,184,146.8,184,146.8c0,7.4-5.9,13.3-13.3,13.3c-7.3,0-13.2-5.9-13.2-13.3
				c0-7.3,5.9-13.3,13.2-13.3v0C178,133.6,183.9,139.5,184,146.8z"/>
			<path class="st0" d="M182.1,87.8l26.1,22l22.7-18.5c0.4-0.3,0.9-0.3,1.3,0l35.6,27.2v1.1h-0.3l-35.9-27.4L209,110.5l-0.1-0.1
				c-0.4-0.4-1.1-0.3-1.4,0.1l-26-21.9l-42.7,31h-0.4v-1l42.5-30.8C181.2,87.5,181.7,87.5,182.1,87.8z"/>
			<rect x="178.6" y="231.1" class="st0" width="1" height="1"/>
			<rect x="178.6" y="230.1" class="st0" width="1" height="1"/>
			<path class="st0" d="M179.6,204.4v25.7h-1v-23.9c0.2-0.2,0.2-0.4,0.2-0.7c0-0.3-0.1-0.5-0.2-0.7v-0.4H179.6z"/>
			<rect x="178.6" y="202.4" class="st0" width="1" height="2"/>
			<path class="st0" d="M178.6,204.8c0.2,0.2,0.2,0.4,0.2,0.7c0,0.3-0.1,0.5-0.2,0.7V204.8z"/>
			<rect x="177.6" y="231.1" class="st0" width="1" height="1"/>
			<rect x="177.6" y="230.1" class="st0" width="1" height="1"/>
			<path class="st0" d="M178.6,204.8v1.3c-0.2,0.2-0.5,0.3-0.8,0.3h-0.3v-2h0.3C178.2,204.4,178.5,204.6,178.6,204.8z"/>
			<rect x="177.6" y="202.4" class="st0" width="1" height="2"/>
			<path class="st0" d="M177.9,204.4h-0.3v0h1v0.4C178.5,204.6,178.2,204.4,177.9,204.4z"/>
			<path class="st0" d="M177.6,206.5h0.3c0.3,0,0.6-0.1,0.8-0.3v23.9h-1V206.5z"/>
			<path class="st1" d="M177.6,232.1v4.3c0,0.8-0.6,1.4-1.4,1.4h-43.7h0c-0.8,0-1.4-0.6-1.3-1.4v-30h5V224c0,4.5,3.6,8.1,8.1,8.1
				H177.6z"/>
			<rect x="138.3" y="204.4" class="st0" width="39.3" height="2"/>
			<path class="st7" d="M177.6,202.4v2h-21.2c-0.6,0-1-0.5-1-1c0-0.6,0.4-1,1-1H177.6z"/>
			<path class="st0" d="M176.3,198.6h-38v-1h38c1.3,0,2.4,1.1,2.4,2.4v2.4h-1V200C177.6,199.2,177,198.6,176.3,198.6z"/>
			<path class="st0" d="M176.3,197.6h-38v-1h38c1.9,0,3.4,1.5,3.4,3.4v2.4h-1V200C178.6,198.7,177.6,197.6,176.3,197.6z"/>
			<path class="st2" d="M176.3,196.6h-38V164l1.1-1.1l3.7,3.7c0.2,0.2,0.5,0.4,0.8,0.4c0.9,0.2,1.8-0.3,2.1-1.2l5.4-20.5
				c0.1-0.3,0.1-0.6,0-0.9c-0.2-0.9-1.2-1.5-2.1-1.2l-11,2.9v-24.6h129.4v6.5h-82.2c-0.6,0-1,0.5-1,1v11c-2.5-5.1-7.7-8.7-13.8-8.7
				c-8.4,0-15.3,6.8-15.3,15.3s6.8,15.3,15.3,15.3c6.1,0,11.3-3.6,13.8-8.7v27.7h-28c-0.6,0-1,0.5-1,1s0.4,1,1,1h28v8.6h-28
				c-0.6,0-1,0.5-1,1s0.4,1,1,1h28v8.6h-4.9V200C179.6,198.1,178.1,196.6,176.3,196.6z"/>
			<path class="st2" d="M169.9,215.2c0.6,0,1,0.4,1,1c0,0.6-0.5,1-1,1h-31.1c-0.2,0-0.4-0.1-0.6-0.2v-1.7c0.2-0.1,0.4-0.2,0.6-0.2
				H169.9z"/>
			<path class="st5" d="M165.1,75.9c-1.1,0-2-0.9-2-2c0-0.6,0.2-1.1,0.6-1.4c0.1,0,0.1-0.1,0.1-0.1c0.4-0.3,0.8-0.5,1.3-0.5
				s0.9,0.2,1.3,0.5c0.1,0,0.1,0.1,0.2,0.1c0.4,0.4,0.6,0.9,0.6,1.4C167.1,74.9,166.2,75.9,165.1,75.9z"/>
			<path class="st0" d="M165.1,71.8c0.5,0,0.9,0.2,1.3,0.5C166,72,165.6,71.8,165.1,71.8c-0.5,0-0.9,0.2-1.3,0.5
				C164.1,72,164.6,71.8,165.1,71.8z"/>
			<path class="st0" d="M163.1,73.8c0,1.1,0.9,2,2,2s2-0.9,2-2c0-0.6-0.2-1.1-0.6-1.4c0.4,0.4,0.6,0.9,0.6,1.5c0,1.1-0.9,2-2.1,2
				S163,75,163.1,73.8c0-0.6,0.2-1.1,0.6-1.4C163.3,72.8,163.1,73.3,163.1,73.8z"/>
			<path class="st0" d="M165.1,77.4c-2,0-3.6-1.6-3.6-3.6s1.6-3.6,3.6-3.6v0c2,0,3.6,1.6,3.6,3.6c0,0,0,0,0,0
				C168.7,75.8,167.1,77.4,165.1,77.4z M163,73.8c0,1.1,0.9,2,2.1,2s2.1-0.9,2.1-2c0-0.6-0.2-1.1-0.6-1.5c-0.1,0-0.1-0.1-0.2-0.1
				c-0.3-0.3-0.8-0.5-1.3-0.5s-0.9,0.2-1.3,0.5c0,0-0.1,0.1-0.1,0.1C163.3,72.7,163,73.3,163,73.8z"/>
			<path class="st2" d="M162.8,225.1c0.6,0,1,0.4,1,1c0,0.6-0.4,1-1,1h-23.6c-0.4-0.6-0.6-1.2-0.8-1.9c0.1-0.1,0.3-0.1,0.5-0.1
				H162.8z"/>
			<path class="st0" d="M156.5,146.9c0-7.9,6.4-14.3,14.3-14.3c6.6,0,12.2,4.5,13.8,10.6v7.4c-1.6,6.1-7.2,10.6-13.8,10.6
				C162.9,161.2,156.5,154.8,156.5,146.9z M157.5,146.9c0,7.3,5.9,13.3,13.2,13.3c7.3,0,13.3-5.9,13.3-13.3c0,0,0,0,0-0.1
				c-0.1-7.3-6-13.1-13.3-13.2v0C163.4,133.6,157.5,139.5,157.5,146.9z"/>
			<path class="st4" d="M156.5,75.9c-1.1,0-2-0.9-2-2c0-0.6,0.2-1.1,0.6-1.4c0.1,0,0.1-0.1,0.1-0.1c0.4-0.3,0.8-0.5,1.3-0.5
				c0.5,0,0.9,0.2,1.3,0.5c0.1,0,0.1,0.1,0.1,0.1c0.4,0.4,0.6,0.9,0.6,1.4C158.5,74.9,157.6,75.9,156.5,75.9z"/>
			<path class="st0" d="M155.4,146.8c0-8.4,6.8-15.3,15.3-15.3c6.1,0,11.3,3.5,13.8,8.7v3c-1.6-6.1-7.2-10.6-13.8-10.6
				c-7.9,0-14.3,6.4-14.3,14.3c0,7.9,6.4,14.3,14.3,14.3c6.6,0,12.2-4.5,13.8-10.6v2.9c-2.5,5.1-7.7,8.7-13.8,8.7
				C162.3,162.1,155.4,155.3,155.4,146.8z"/>
			<path class="st1" d="M177.6,204.4h-39.3v-5.8h38c0.8,0,1.4,0.6,1.4,1.4v2.4h-21.2c-0.6,0-1,0.5-1,1c0,0.6,0.4,1,1,1L177.6,204.4
				L177.6,204.4z"/>
			<path class="st0" d="M155.2,72.3c0.4-0.3,0.8-0.5,1.3-0.5c0.5,0,0.9,0.2,1.3,0.5c-0.4-0.3-0.8-0.5-1.3-0.5
				C156,71.8,155.5,72,155.2,72.3z"/>
			<path class="st0" d="M154.4,73.8c0,1.1,0.9,2,2,2c1.1,0,2-0.9,2-2c0-0.6-0.2-1.1-0.6-1.4c0.4,0.4,0.6,0.9,0.6,1.5
				c0,1.1-0.9,2-2,2C155.3,75.9,154.4,75,154.4,73.8c0-0.6,0.2-1.1,0.6-1.4C154.7,72.8,154.4,73.3,154.4,73.8z"/>
			<path class="st0" d="M156.5,71.8c-0.5,0-0.9,0.2-1.3,0.5c-0.1,0-0.1,0.1-0.1,0.1c-0.4,0.4-0.6,0.9-0.6,1.5c0,1.1,0.9,2,2.1,2
				c1.1,0,2-0.9,2-2c0-0.6-0.2-1.1-0.6-1.5c0,0-0.1-0.1-0.1-0.1C157.4,72,156.9,71.8,156.5,71.8z M152.9,73.9c0-2,1.6-3.6,3.6-3.6v0
				c2,0,3.6,1.6,3.6,3.6c0,0,0,0,0,0c0,2-1.6,3.6-3.6,3.6C154.5,77.4,152.9,75.8,152.9,73.9z"/>
			<path class="st2" d="M165.1,70.3c-2,0-3.6,1.6-3.6,3.6s1.6,3.6,3.6,3.6s3.6-1.6,3.6-3.6c0,0,0,0,0,0
				C168.7,71.9,167.1,70.3,165.1,70.3L165.1,70.3z M156.5,70.3c-2,0-3.6,1.6-3.6,3.6s1.6,3.6,3.6,3.6c2,0,3.6-1.6,3.6-3.6
				c0,0,0,0,0,0C160,71.9,158.4,70.3,156.5,70.3L156.5,70.3z M147.4,68.2h74.1l37,0c1.3,0,2.5,0.2,3.5,0.7c1.1,0.5,2.1,1.1,2.9,2
				c0.3,0.3,0.6,0.6,0.9,1c0.4,0.6,0.8,1.2,1.1,1.9l0,0c0,0.1,0.1,0.3,0.2,0.4c0.3,1,0.5,2,0.5,3.1v3.5H138.3v-1.7l0-1.7
				C138.3,72.3,142.4,68.2,147.4,68.2z M147.8,70.3c-2,0-3.6,1.6-3.6,3.6s1.6,3.6,3.6,3.6c2,0,3.6-1.6,3.6-3.6c0,0,0,0,0,0
				C151.4,71.9,149.8,70.3,147.8,70.3L147.8,70.3z"/>
			<path class="st6" d="M147.8,75.9c-1.1,0-2-0.9-2-2c0-0.6,0.2-1.1,0.6-1.4c0.1,0,0.1-0.1,0.2-0.1c0.3-0.3,0.8-0.5,1.3-0.5
				c1.1,0,2,0.9,2,2C149.9,74.9,149,75.9,147.8,75.9z"/>
			<path class="st0" d="M147.8,75.9c-1.1,0-2.1-0.9-2.1-2c0-0.6,0.2-1.1,0.6-1.5c-0.4,0.4-0.6,0.9-0.6,1.4
				C145.8,74.9,146.7,75.9,147.8,75.9c1.1,0,2-0.9,2-2.1c0-1.1-0.9-2-2-2c-0.5,0-0.9,0.2-1.3,0.5c0.3-0.3,0.8-0.5,1.3-0.5
				c1.1,0,2.1,0.9,2.1,2.1C149.9,75,149,75.9,147.8,75.9z"/>
			<path class="st0" d="M147.8,75.9c1.1,0,2.1-0.9,2.1-2c0-1.1-0.9-2.1-2.1-2.1c-0.5,0-0.9,0.2-1.3,0.5c-0.1,0-0.1,0.1-0.2,0.1
				c-0.4,0.4-0.6,0.9-0.6,1.5C145.8,75,146.7,75.9,147.8,75.9z M144.3,73.9c0-2,1.6-3.6,3.6-3.6v0c2,0,3.6,1.6,3.6,3.6c0,0,0,0,0,0
				c0,2-1.6,3.6-3.6,3.6C145.9,77.4,144.3,75.8,144.3,73.9z"/>
			<path class="st1" d="M138.9,225.1c-0.2,0-0.3,0-0.5,0.1c-0.1-0.4-0.1-0.8-0.1-1.2v-7c0.2,0.1,0.4,0.2,0.6,0.2h31.1
				c0.6,0,1-0.5,1-1c0-0.6-0.5-1-1-1h-31.1c-0.2,0-0.4,0.1-0.6,0.2v-8.9h39.3v23.6h-33.2c-2.2,0-4.2-1.2-5.2-3h23.6c0.6,0,1-0.5,1-1
				c0-0.6-0.4-1-1-1H138.9z"/>
			<path class="st0" d="M143.1,67.1c-0.7,0.3-1.3,0.6-1.9,1C141.8,67.7,142.4,67.4,143.1,67.1z"/>
			<path class="st0" d="M142.6,68.4c-0.3,0.2-0.6,0.3-0.8,0.5C142,68.8,142.3,68.6,142.6,68.4z"/>
			<path class="st0" d="M141.2,68.1c-0.3,0.2-0.6,0.4-0.9,0.6C140.6,68.5,140.9,68.3,141.2,68.1z"/>
			<path class="st0" d="M181.4,89.9l-41,29.7h-1.7l42.7-31l26,21.9l0,0c-0.4,0.4-0.3,1.1,0.1,1.4l0.1,0.1c-0.1,0-0.1-0.1-0.2-0.1
				L181.4,89.9z"/>
			<polygon class="st0" points="140.4,119.6 213.9,119.6 265.7,119.6 267.4,119.6 267.7,119.9 267.7,120.6 138.3,120.6 138.3,119.9 
				138.7,119.6 			"/>
			<path class="st0" d="M139.9,70.5c0.1-0.1,0.2-0.2,0.3-0.3C140.1,70.3,140,70.4,139.9,70.5z"/>
			<path class="st0" d="M139.4,162.9l-1.1,1.1v-1.4l1.1-1.1l4.4,4.4c0.1,0.1,0.2,0.2,0.3,0.2c0.4,0.1,0.7-0.1,0.8-0.5l5.4-20.5
				c0-0.1,0-0.2,0-0.3c-0.1-0.4-0.5-0.6-0.8-0.5l-11.3,3v-1.1l11-2.9c0.9-0.2,1.8,0.3,2.1,1.2c0.1,0.3,0.1,0.6,0,0.9l-5.4,20.5
				c-0.2,0.9-1.2,1.5-2.1,1.2c-0.3-0.1-0.6-0.2-0.8-0.4L139.4,162.9z"/>
			<path class="st2" d="M138.3,161.2v-12.8l11-2.9l-5.1,19.4l-4.1-4.1c-0.4-0.4-1.1-0.4-1.4,0L138.3,161.2z"/>
			<path class="st0" d="M149.3,145.4l-11,2.9v-1.1l11.3-3c0.4-0.1,0.8,0.1,0.8,0.5c0,0.1,0,0.2,0,0.3l-5.4,20.5
				c-0.1,0.4-0.5,0.6-0.8,0.5c-0.1,0-0.2-0.1-0.3-0.2l-4.4-4.4l-1.1,1.1v-1.5l0.4-0.4c0.4-0.4,1-0.4,1.4,0l4.1,4.1L149.3,145.4z"/>
			<path class="st7" d="M144.4,231.1c-3,0-5.6-1.9-6.6-4.5l0.2-0.1c0.1,0.4,0.5,0.6,0.9,0.6h0.3c1.1,1.8,3,3,5.2,3h33.2v1H144.4z"/>
			<path class="st0" d="M139.3,71.3c-0.3,0.4-0.6,0.8-0.8,1.2C138.7,72.1,139,71.7,139.3,71.3z"/>
			<polygon class="st0" points="138.7,119.6 138.3,119.9 138.3,119.6 			"/>
			<path class="st0" d="M138.2,73.2c0.1-0.2,0.2-0.5,0.3-0.7C138.4,72.7,138.3,73,138.2,73.2z"/>
			<path class="st2" d="M138.4,225.2c0.1,0.7,0.4,1.3,0.8,1.9h-0.3c-0.4,0-0.8-0.3-0.9-0.6c-0.1-0.1-0.1-0.3-0.1-0.4
				C137.9,225.7,138.1,225.3,138.4,225.2z"/>
			<path class="st0" d="M138.3,77.3c0-5,4.1-9.1,9.1-9.1l74.1,0h-74.1C142.4,68.2,138.3,72.3,138.3,77.3v1.8V77.3z"/>
			<path class="st2" d="M138.3,215.3v1.7c-0.3-0.2-0.4-0.5-0.4-0.8C137.9,215.8,138,215.5,138.3,215.3z"/>
			<path class="st7" d="M137.9,216.2c0,0.3,0.2,0.6,0.4,0.8v7c0,0.4,0,0.8,0.1,1.2c-0.3,0.2-0.6,0.5-0.6,0.9c0,0.1,0,0.3,0.1,0.4
				l-0.2,0.1c-0.3-0.8-0.5-1.7-0.5-2.6v-17.5h1v8.9C138,215.5,137.9,215.8,137.9,216.2z"/>
			<rect x="137.3" y="204.4" class="st0" width="1" height="2"/>
			<rect x="137.3" y="198.6" class="st7" width="1" height="5.8"/>
			<rect x="137.3" y="197.6" class="st0" width="1" height="1"/>
			<rect x="137.3" y="196.6" class="st0" width="1" height="1"/>
			<polygon class="st0" points="138.3,164 138.3,196.6 137.3,196.6 137.3,165.1 			"/>
			<polygon class="st0" points="138.3,162.6 138.3,164 137.3,165.1 137.3,163.6 			"/>
			<polygon class="st0" points="138.3,161.2 138.3,162.6 137.3,163.6 137.3,162.2 			"/>
			<polygon class="st2" points="138.3,148.3 138.3,161.2 137.3,162.2 137.3,148.6 			"/>
			<polygon class="st0" points="138.3,147.3 138.3,148.3 137.3,148.6 137.3,147.6 			"/>
			<polygon class="st0" points="138.3,146.2 138.3,147.3 137.3,147.6 137.3,146.5 			"/>
			<polygon class="st0" points="138.3,121.7 138.3,146.2 137.3,146.5 137.3,121.7 137.3,121.7 			"/>
			<polygon class="st0" points="138.3,119.9 138.3,120.6 137.3,120.6 			"/>
			<polygon class="st0" points="138.3,118.6 138.3,119.6 138.3,119.6 138.3,118.6 			"/>
			<polygon class="st7" points="138.3,82.9 138.3,118.6 138.3,118.6 138.3,82.9 			"/>
			<polygon class="st2" points="138.3,79.1 138.3,80.8 138.3,80.8 			"/>
			<path class="st0" d="M137.3,77.4c0-1.1,0.2-2.1,0.4-3c0.1-0.3,0.2-0.6,0.3-0.9c0-0.1,0.1-0.1,0.1-0.2c0.1-0.2,0.2-0.5,0.3-0.7
				c0.2-0.4,0.5-0.8,0.8-1.2c0.2-0.3,0.4-0.5,0.6-0.8c0.1-0.1,0.2-0.2,0.3-0.3c0.5-0.5,1-0.9,1.5-1.2c0.3-0.2,0.5-0.3,0.8-0.5
				c1.4-0.8,3.1-1.2,4.8-1.2h111.1c5.6,0,10.2,4.5,10.2,10.1c0,0,0,0,0,0v3.5h-1v-3.5c0-1.1-0.2-2.2-0.6-3.2
				c-0.1-0.1-0.1-0.3-0.2-0.4c0,0,0,0,0,0c-0.3-0.7-0.7-1.3-1.1-1.9c-0.3-0.3-0.5-0.7-0.9-1c-0.8-0.8-1.8-1.5-2.9-2
				c-1.1-0.5-2.3-0.7-3.6-0.7h-37l-74.1,0c-5,0-9.1,4.1-9.1,9.1v1.8l0,1.7h-1V77.4z"/>
			<polygon class="st0" points="137.3,120.6 137.3,119.4 138.3,118.6 138.3,119.6 138.3,119.6 138.3,119.9 			"/>
			<polygon class="st0" points="138.3,82.9 137.3,82.9 137.3,81.8 138.3,81.8 138.3,82.9 			"/>
			<polygon class="st0" points="137.3,80.8 138.3,80.8 138.3,80.8 138.3,81.8 137.3,81.8 			"/>
			<polygon class="st0" points="137.3,82.9 138.3,82.9 138.3,118.6 137.3,119.4 			"/>
			<path class="st0" d="M138.2,73.2c0,0.1-0.1,0.1-0.1,0.2C138.1,73.3,138.1,73.3,138.2,73.2z"/>
			<path class="st0" d="M137.3,77.4c0-1.1,0.2-2.1,0.5-3C137.4,75.3,137.3,76.3,137.3,77.4l0,3.5h0V77.4z"/>
			<polygon class="st0" points="137.3,82.9 137.3,119.4 137.3,119.4 137.3,82.9 			"/>
			<polygon class="st0" points="137.3,81.8 137.3,82.9 137.3,82.9 137.3,80.8 137.3,80.8 			"/>
			<polygon class="st0" points="137.3,120.6 138.3,120.6 138.3,121.7 137.3,121.7 137.3,121.7 137.3,119.4 137.3,119.4 			"/>
			<path class="st7" d="M144.4,232.1c-4.5,0-8.1-3.6-8.1-8.1v-17.5h1V224c0,0.9,0.2,1.8,0.5,2.6c1,2.7,3.6,4.5,6.6,4.5h33.3v1H144.4
				z"/>
			<rect x="136.2" y="204.4" class="st0" width="1" height="2"/>
			<rect x="136.2" y="198.6" class="st7" width="1" height="5.8"/>
			<rect x="136.2" y="197.6" class="st0" width="1" height="1"/>
			<rect x="136.2" y="196.6" class="st0" width="1" height="1"/>
			<polygon class="st0" points="137.3,165.1 137.3,196.6 136.2,196.6 136.2,166.1 			"/>
			<polygon class="st0" points="137.3,163.6 137.3,165.1 136.2,166.1 136.2,164.7 			"/>
			<polygon class="st0" points="137.3,162.2 137.3,163.6 136.2,164.7 136.2,163.2 			"/>
			<polygon class="st2" points="137.3,148.6 137.3,162.2 136.2,163.2 136.2,148.9 			"/>
			<polygon class="st0" points="137.3,147.6 137.3,148.6 136.2,148.9 136.2,147.8 			"/>
			<polygon class="st0" points="137.3,146.5 137.3,147.6 136.2,147.8 136.2,146.8 			"/>
			<path class="st0" d="M137.3,121.7c-0.1,0-0.3,0-0.4-0.1c-0.1-0.1-0.2-0.1-0.3-0.2c-0.2-0.2-0.3-0.4-0.3-0.7v0
				c0-0.3,0.2-0.6,0.4-0.8l0.6-0.4V121.7z"/>
			<path class="st0" d="M137.3,82.9v36.5l-0.6,0.4c-0.3,0.2-0.4,0.5-0.4,0.8V81.8C136.2,82.4,136.7,82.8,137.3,82.9z"/>
			<path class="st0" d="M136.2,81.8c0-0.6,0.4-1,1-1v2C136.7,82.8,136.2,82.4,136.2,81.8z"/>
			<path class="st0" d="M136.2,77.4c0-3.1,1.2-5.9,3.3-7.9c0.2-0.2,0.5-0.5,0.8-0.7c0.3-0.2,0.6-0.4,0.9-0.6c0,0,0,0,0,0
				c0.6-0.4,1.2-0.8,1.9-1c1.3-0.6,2.8-0.9,4.4-0.9h111.1c6.2,0,11.2,5,11.2,11.2v4.3c-0.1-0.5-0.5-0.8-1-0.8v-3.5c0,0,0,0,0,0
				c0-5.6-4.6-10.1-10.2-10.1H147.4c-1.8,0-3.4,0.5-4.8,1.2c-0.3,0.2-0.6,0.3-0.8,0.5c-0.5,0.4-1,0.8-1.5,1.2
				c-0.1,0.1-0.2,0.2-0.3,0.3c-0.2,0.2-0.4,0.5-0.6,0.8c-0.3,0.4-0.6,0.8-0.8,1.2c-0.1,0.2-0.2,0.5-0.3,0.7c0,0.1-0.1,0.1-0.1,0.2
				c-0.1,0.3-0.2,0.6-0.3,0.9c-0.3,1-0.5,2-0.5,3v3.5c-0.6,0-1,0.5-1,1V77.4z"/>
			<path class="st0" d="M136.6,121.4c0.1,0.1,0.2,0.2,0.3,0.2C136.8,121.5,136.6,121.4,136.6,121.4z"/>
			<path class="st0" d="M139.5,69.5c-2,2-3.3,4.8-3.3,7.9v4.5v38.8v0c0,0.3,0.1,0.5,0.3,0.7c0.1,0.1,0.2,0.2,0.3,0.2
				c0.1,0,0.2,0.1,0.4,0.1v24.9l-1,0.3V77.4C136.2,74.3,137.5,71.5,139.5,69.5z"/>
			<rect x="131.2" y="204.4" class="st0" width="5" height="2"/>
			<path class="st1" d="M136.2,198.6v5.8h-5V200c0,0,0,0,0,0c0-0.7,0.6-1.4,1.3-1.4H136.2z"/>
			<path class="st2" d="M136.2,148.9v14.3l-6.3,6.3l-4.7-4.7l8.8-8.8c0.2-0.2,0.3-0.5,0.3-0.7c0-0.3-0.1-0.5-0.3-0.7l-4.1-4.1
				L136.2,148.9z"/>
			<path class="st0" d="M132.6,198.6c-0.8,0-1.3,0.6-1.3,1.4c0,0,0,0,0,0v4.5h-1V200c0-1.3,1.1-2.4,2.4-2.4h3.7v1H132.6z"/>
			<rect x="130.2" y="204.4" class="st0" width="1" height="2"/>
			<path class="st0" d="M132.6,237.8h43.7c0.8,0,1.4-0.6,1.4-1.4v-4.3h1v4.3c0,1.3-1.1,2.4-2.4,2.4h-43.7c-1.3,0-2.4-1.1-2.4-2.4
				v-30h1v30C131.2,237.2,131.8,237.8,132.6,237.8L132.6,237.8z"/>
			<path class="st0" d="M130.2,204.4v2h0c-0.5,0-0.9-0.3-1-0.8v-0.4C129.3,204.8,129.7,204.4,130.2,204.4L130.2,204.4z"/>
			<path class="st0" d="M129.2,200c0-1.9,1.5-3.4,3.4-3.4h3.7v1h-3.7c-1.3,0-2.4,1.1-2.4,2.4v4.5h0c-0.5,0-0.9,0.3-1,0.8V200z"/>
			<path class="st0" d="M132.6,239.8c-1.9,0-3.4-1.5-3.4-3.4v-30.8c0.1,0.5,0.5,0.8,1,0.8h0v30c0,1.3,1.1,2.4,2.4,2.4h43.7
				c1.3,0,2.4-1.1,2.4-2.4v-4.3h1v4.3c0,1.9-1.5,3.4-3.4,3.4H132.6z"/>
			<path class="st0" d="M129.1,149.7l7.1-1.9v1l-6.3,1.7l4.1,4.1c0.2,0.2,0.3,0.5,0.3,0.7c0,0.3-0.1,0.5-0.3,0.7l-8.8,8.8l4.7,4.7
				l6.3-6.3v1.5l-5.8,5.8c-0.3,0.3-0.7,0.3-1,0c0,0,0,0,0,0l-5.2-5.2c-0.3-0.3-0.3-0.7,0-1c0,0,0,0,0,0l9-9l-4.4-4.4
				c-0.2-0.3-0.2-0.7,0.1-1C128.9,149.8,129,149.7,129.1,149.7z"/>
			<path class="st0" d="M129.2,205.2v0.4c0-0.1,0-0.1,0-0.2C129.2,205.4,129.2,205.3,129.2,205.2z"/>
			<path class="st0" d="M129.4,170.5c0.3,0.3,0.7,0.2,1,0l5.8-5.8v1.4l-5.1,5.1c-0.3,0.3-0.8,0.5-1.2,0.5s-0.9-0.2-1.2-0.5l-5.2-5.2
				c-0.7-0.6-0.7-1.7,0-2.4c0,0,0,0,0,0l8.3-8.3l-3.7-3.7c-0.7-0.7-0.7-1.7,0-2.4c0.2-0.2,0.5-0.4,0.8-0.4l7.4-1.9v1.1l-7.1,1.9
				c-0.1,0-0.2,0.1-0.3,0.2c-0.3,0.3-0.3,0.7-0.1,1l4.4,4.4l-9,9c0,0,0,0,0,0c-0.3,0.3-0.2,0.7,0,1L129.4,170.5
				C129.4,170.5,129.4,170.5,129.4,170.5z"/>
		</g>
		<g>
		</g>
	</g>
</g>
</svg>
