<?xml version="1.0" encoding="utf-8"?>
<!-- Generator: Adobe Illustrator 24.0.1, SVG Export Plug-In . SVG Version: 6.00 Build 0)  -->
<svg version="1.1" id="capa1" xmlns="http://www.w3.org/2000/svg" xmlns:xlink="http://www.w3.org/1999/xlink" x="0px" y="0px"
	 viewBox="0 0 1051.7 1051.7" style="enable-background:new 0 0 1051.7 1051.7;" xml:space="preserve">
<style type="text/css">
	.st0{fill:#FCFCFC;}
</style>
<path class="st0" d="M1059.8,1060V-4.1h-20.9h-52.8H16.8H-4.1v73.8c0,0,0,846.7,0,916.5v73.7c0.6,0.1,73.9,0,74.5,0h35.1
	c15.6,0,163.2-1.2,213.7-0.6c8.6,0.1,16.6-5.1,19.7-13.1c0.7-1.9,1.6-3.8,2.4-5.6c7.1-15.8,14.4-31.5,22.1-46.9
	c38.5-78,84.7-152,127.5-227.5c42.7-75.2,89.6-146.5,118.1-228.8c6.9-20,12.7-41.7,6.8-62c-18.6-63.4-98.8-14-134.5,1.2
	c-2.8,1.2-6.9,2-8.4-0.6c-0.8-1.4-0.5-3.1-0.1-4.8c6.7-28.6,17-58.9,10.5-88.5c-2.5-11.3-8.6-22.4-18.4-28.5
	c-11-6.9-25.2-6.8-37.4-2.8c-32.6,10.4-58.3,37.9-85,58c-3.6,2.7-7.3,5.5-11.6,6.5c-4.3,1-9.6-0.1-12-3.8c-1.7-2.6-1.7-6-1.6-9
	c7.3-156,205.5-245.8,340.3-210C734.8,213.4,802.1,274,823.9,351c19.2,67.7,3.4,140.5-21.3,206.3c-40.1,105.6-88.8,206.6-117,316.7
	c-7.6,29.5-13.7,59.9-11.9,90.3c1,17.8,16.6,93,43.2,93.2c4.3,0,247.2,2.1,268,2.3c0.9,0,1.9,0,2.8-0.2L1059.8,1060z M356.1,524.1
	c1.4,1.1,2.9,2.2,4.3,3.2c2.7,2,5.5,4.2,6.4,7.6c1.5,5.6-3.3,10.7-7.7,14.5c-23,19.8-46.4,39.1-68.8,59.7
	c-22.2,20.4-45.1,40.5-71.9,54.5c-9.3,4.9-19.5,9-29.9,8c-3.5-0.4-7.4-1.6-9-4.9c-1.8-3.7,0.3-8.1,2.3-11.7
	c30.6-53.6,58.8-110.5,93-161.8c0.2-0.3,0.4-0.7,0.7-1.1c2-3.4,4.2-6.9,7.8-8.5c5.1-2.2,10.8,0.2,15.7,2.7
	C319.2,496.9,338,510.3,356.1,524.1z"/>
</svg>
